<?xml version="1.0" encoding="utf-8"?>
<svg xmlns="http://www.w3.org/2000/svg" width="781" zoomAndPan="magnify" viewBox="0 0 585.75 472.499986" height="630" preserveAspectRatio="xMidYMid meet" version="1.0">
  <defs>
    <clipPath id="cd5211bb6f">
      <path d="M 358.511719 243 L 585.316406 243 L 585.316406 470 L 358.511719 470 Z M 358.511719 243 " clip-rule="nonzero"/>
    </clipPath>
  </defs>
  <g clip-path="url(#cd5211bb6f)" transform="matrix(2.081249, 0, 0, 2.067373, -676.950439, -497.695007)" style="">
    <path fill="#eee1cb" d="M 471.722656 467.179688 C 471.722656 464.605469 470.921875 458 470.394531 456.210938 C 470.203125 455.570312 469.914062 453.703125 469.734375 452.0625 C 469.566406 450.417969 469.191406 447.65625 468.902344 445.921875 C 468.625 444.1875 468.085938 440.527344 467.742188 437.789062 C 466.871094 431.132812 466.425781 429.050781 463.730469 418.441406 C 461.367188 409.136719 458.476562 399.835938 455.917969 393.203125 C 452.003906 383.050781 448.117188 378.5 440.027344 374.566406 C 433.777344 371.527344 423.144531 367.988281 410.492188 364.734375 C 400.519531 362.171875 397.4375 361.527344 390.910156 360.644531 C 388.171875 360.269531 384.4375 359.738281 382.613281 359.460938 C 380.789062 359.179688 378.105469 358.816406 376.640625 358.652344 C 375.1875 358.488281 372.933594 358.125 371.660156 357.84375 C 368.175781 357.074219 364.484375 356.644531 361.34375 356.644531 C 359.710938 356.644531 358.550781 356.507812 358.550781 356.3125 C 358.550781 356.117188 359.769531 355.980469 361.539062 355.980469 C 364.511719 355.980469 370.113281 355.285156 372.640625 354.609375 C 373.375 354.414062 375.242188 354.125 376.789062 353.96875 C 378.351562 353.8125 381.050781 353.453125 382.777344 353.171875 C 384.519531 352.886719 387.730469 352.429688 389.914062 352.152344 C 396.648438 351.292969 400.839844 350.433594 410.65625 347.875 C 420.710938 345.253906 431.773438 341.726562 437.609375 339.273438 C 445.296875 336.042969 450.179688 331.703125 453.429688 325.21875 C 456.359375 319.363281 460.523438 306.839844 463.71875 294.25 C 466.441406 283.546875 466.871094 281.480469 467.742188 274.835938 C 468.085938 272.097656 468.625 268.4375 468.902344 266.703125 C 469.191406 264.96875 469.566406 262.207031 469.734375 260.5625 C 469.914062 258.921875 470.203125 257.054688 470.394531 256.414062 C 470.921875 254.625 471.722656 248.019531 471.722656 245.445312 C 471.722656 241.351562 472.289062 242.996094 472.5 247.703125 C 472.609375 250.257812 472.996094 253.652344 473.371094 255.417969 C 473.742188 257.152344 474.199219 259.839844 474.363281 261.394531 C 474.542969 262.945312 474.917969 265.632812 475.195312 267.367188 C 475.472656 269.101562 475.996094 272.757812 476.355469 275.496094 C 477.214844 281.964844 477.90625 285.273438 480.53125 295.375 C 483.628906 307.253906 487.929688 320.078125 490.53125 325.226562 C 493.726562 331.550781 498.34375 335.734375 505.6875 338.972656 C 514.621094 342.902344 540.148438 350.1875 549.550781 351.484375 C 551.734375 351.785156 555.550781 352.332031 558.015625 352.691406 C 560.476562 353.054688 563.613281 353.5 564.984375 353.679688 C 566.351562 353.863281 569.117188 354.304688 571.125 354.664062 C 576.820312 355.691406 579.199219 355.964844 582.324219 355.972656 C 583.929688 355.976562 585.226562 356.105469 585.226562 356.261719 C 585.226562 356.417969 583.320312 356.640625 580.996094 356.757812 C 578.671875 356.878906 575.726562 357.175781 574.441406 357.429688 C 571.855469 357.933594 568.261719 358.511719 564.984375 358.953125 C 562.191406 359.328125 554.417969 360.460938 548.722656 361.320312 C 543.4375 362.117188 528.488281 365.867188 520.207031 368.46875 C 513.03125 370.726562 505.464844 373.585938 502.589844 375.125 C 497.5 377.859375 493.65625 381.695312 490.847656 386.84375 C 488.207031 391.71875 483.769531 404.824219 480.503906 417.398438 C 477.835938 427.742188 477.199219 430.753906 476.355469 437.125 C 475.996094 439.863281 475.484375 443.523438 475.195312 445.257812 C 474.917969 446.992188 474.542969 449.679688 474.363281 451.230469 C 474.199219 452.78125 473.742188 455.46875 473.371094 457.203125 C 472.996094 458.96875 472.609375 462.367188 472.5 464.921875 C 472.289062 469.625 471.722656 471.269531 471.722656 467.179688 Z M 412.011719 318.925781 C 410.753906 309.890625 408.03125 300.878906 405.761719 298.226562 C 405.125 297.484375 403.921875 296.53125 403.066406 296.105469 C 398.378906 293.742188 388.269531 291.328125 378.796875 290.308594 L 376.640625 290.074219 L 378.796875 289.878906 C 385.972656 289.234375 394.601562 287.398438 400.492188 285.265625 C 405.625 283.410156 407.144531 281.40625 409.453125 273.445312 C 410.835938 268.703125 411.375 266.015625 412.191406 260.148438 C 412.523438 257.726562 412.882812 255.933594 413.007812 256.164062 C 413.132812 256.390625 413.5625 258.894531 413.960938 261.722656 C 414.75 267.386719 415.46875 270.574219 417.03125 275.332031 C 419.273438 282.207031 420.460938 283.515625 426.378906 285.589844 C 431.953125 287.546875 439.933594 289.203125 447 289.867188 L 449.320312 290.085938 L 447.332031 290.292969 C 442.628906 290.777344 435.4375 292.015625 431.964844 292.9375 C 424.941406 294.804688 421.664062 296.28125 419.878906 298.390625 C 418.042969 300.558594 415.261719 309.828125 414.113281 317.648438 C 413.65625 320.75 413.171875 323.566406 413.035156 323.902344 C 412.882812 324.285156 412.496094 322.386719 412.011719 318.925781 Z M 412.011719 318.925781 " fill-opacity="1" fill-rule="nonzero"/>
  </g>
</svg>